<mxfile host="app.diagrams.net" modified="2024-06-12T04:39:17.516Z" agent="Mozilla/5.0 (Windows NT 10.0; Win64; x64) AppleWebKit/537.36 (KHTML, like Gecko) Chrome/125.0.0.0 Safari/537.36" version="23.1.1" etag="GDiEDVV6yXO_uu4bZcPc" type="github">
  <diagram name="Page-1" id="vAoW7NIM4LPJzXRmm6nN">
    <mxGraphModel>
      <root>
        <mxCell id="0" />
        <mxCell id="1" parent="0" />
      </root>
    </mxGraphModel>
  </diagram>
</mxfile>
